REM DIRINDEX 1\4,1\2\5,1\2\6,1\3\7,1\3\8,1\3\9,1\3\10
REM DIRNAME folder01,folder02,folder03,folder04,folder05,folder06,folder07,folder08,folder09,folder10
TITLE ""
FILE "DISC2Track42.mp3" MP3
  TRACK 01 AUDIO
    TITLE "0:"
    INDEX 01 00:00:00
  TRACK 02 AUDIO
    TITLE "7:cjc107_2354"
    INDEX 01 00:00:01
  TRACK 03 AUDIO
    TITLE "0:"
    INDEX 01 00:03:21
  TRACK 04 AUDIO
    TITLE "8:cjc107_2355"
    INDEX 01 00:04:29
  TRACK 05 AUDIO
    TITLE "0:"
    INDEX 01 00:05:32
  TRACK 06 AUDIO
    TITLE "9:cjc107_2356"
    INDEX 01 00:05:48
  TRACK 07 AUDIO
    TITLE "0:"
    INDEX 01 00:06:71
  TRACK 08 AUDIO
    TITLE "8:cjc107_2357"
    INDEX 01 00:07:47
  TRACK 09 AUDIO
    TITLE "0:"
    INDEX 01 00:09:08
  TRACK 10 AUDIO
    TITLE "9:cjc107_2358"
    INDEX 01 00:09:14
  TRACK 11 AUDIO
    TITLE "0:"
    INDEX 01 00:10:53
  TRACK 12 AUDIO
    TITLE "8:cjc107_2359"
    INDEX 01 00:11:25
  TRACK 13 AUDIO
    TITLE "0:"
    INDEX 01 00:12:38
  TRACK 14 AUDIO
    TITLE "9:cjc107_2360"
    INDEX 01 00:12:48
  TRACK 15 AUDIO
    TITLE "0:"
    INDEX 01 00:13:65
  TRACK 16 AUDIO
    TITLE "8:cjc107_2361"
    INDEX 01 00:14:35
  TRACK 17 AUDIO
    TITLE "0:"
    INDEX 01 00:15:44
  TRACK 18 AUDIO
    TITLE "9:cjc107_2362"
    INDEX 01 00:15:62
  TRACK 19 AUDIO
    TITLE "0:"
    INDEX 01 00:17:23
  TRACK 20 AUDIO
    TITLE "8:cjc107_2363"
    INDEX 01 00:18:03
  TRACK 21 AUDIO
    TITLE "0:"
    INDEX 01 00:19:18
  TRACK 22 AUDIO
    TITLE "9:cjc107_2364"
    INDEX 01 00:19:26
  TRACK 23 AUDIO
    TITLE "0:"
    INDEX 01 00:21:41
  TRACK 24 AUDIO
    TITLE "8:cjc107_2365"
    INDEX 01 00:22:11
  TRACK 25 AUDIO
    TITLE "0:"
    INDEX 01 00:23:24
  TRACK 26 AUDIO
    TITLE "9:cjc107_2366"
    INDEX 01 00:23:26
  TRACK 27 AUDIO
    TITLE "0:"
    INDEX 01 00:26:03
  TRACK 28 AUDIO
    TITLE "8:cjc107_2367"
    INDEX 01 00:26:52
  TRACK 29 AUDIO
    TITLE "0:"
    INDEX 01 00:27:71
  TRACK 30 AUDIO
    TITLE "9:cjc107_2368"
    INDEX 01 00:27:73
  TRACK 31 AUDIO
    TITLE "0:"
    INDEX 01 00:29:05
  TRACK 32 AUDIO
    TITLE "8:cjc107_2369"
    INDEX 01 00:29:56
  TRACK 33 AUDIO
    TITLE "0:"
    INDEX 01 00:30:73
  TRACK 34 AUDIO
    TITLE "9:cjc107_2370"
    INDEX 01 00:31:00
  TRACK 35 AUDIO
    TITLE "0:"
    INDEX 01 00:33:17
  TRACK 36 AUDIO
    TITLE "8:cjc107_2371"
    INDEX 01 00:33:64
  TRACK 37 AUDIO
    TITLE "0:"
    INDEX 01 00:34:71
  TRACK 38 AUDIO
    TITLE "9:cjc107_2372"
    INDEX 01 00:34:73
  TRACK 39 AUDIO
    TITLE "0:"
    INDEX 01 00:36:17
  TRACK 40 AUDIO
    TITLE "8:cjc107_2373"
    INDEX 01 00:36:62
  TRACK 41 AUDIO
    TITLE "0:"
    INDEX 01 00:38:00
  TRACK 42 AUDIO
    TITLE "9:cjc107_2374"
    INDEX 01 00:38:02
  TRACK 43 AUDIO
    TITLE "0:"
    INDEX 01 00:40:03
  TRACK 44 AUDIO
    TITLE "8:cjc107_2375"
    INDEX 01 00:40:52
  TRACK 45 AUDIO
    TITLE "0:"
    INDEX 01 00:41:59
  TRACK 46 AUDIO
    TITLE "9:cjc107_2376"
    INDEX 01 00:42:04
  TRACK 47 AUDIO
    TITLE "0:"
    INDEX 01 00:45:24
  TRACK 48 AUDIO
    TITLE "8:cjc107_2377"
    INDEX 01 00:45:71
  TRACK 49 AUDIO
    TITLE "0:"
    INDEX 01 00:47:28
  TRACK 50 AUDIO
    TITLE "9:cjc107_2378"
    INDEX 01 00:47:40
  TRACK 51 AUDIO
    TITLE "0:"
    INDEX 01 00:48:65
  TRACK 52 AUDIO
    TITLE "8:cjc107_2379"
    INDEX 01 00:49:37
  TRACK 53 AUDIO
    TITLE "0:"
    INDEX 01 00:50:44
  TRACK 54 AUDIO
    TITLE "9:cjc107_2380"
    INDEX 01 00:50:52
  TRACK 55 AUDIO
    TITLE "0:"
    INDEX 01 00:52:02
  TRACK 56 AUDIO
    TITLE "8:cjc107_2381"
    INDEX 01 00:52:47
  TRACK 57 AUDIO
    TITLE "0:"
    INDEX 01 00:53:55
  TRACK 58 AUDIO
    TITLE "9:cjc107_2382"
    INDEX 01 00:53:64
  TRACK 59 AUDIO
    TITLE "0:"
    INDEX 01 00:54:74
  TRACK 60 AUDIO
    TITLE "8:cjc107_2383"
    INDEX 01 00:55:46
  TRACK 61 AUDIO
    TITLE "0:"
    INDEX 01 00:56:74
  TRACK 62 AUDIO
    TITLE "9:cjc107_2384"
    INDEX 01 00:57:13
  TRACK 63 AUDIO
    TITLE "0:"
    INDEX 01 00:59:32
  TRACK 64 AUDIO
    TITLE "10:cjc107_2385"
    INDEX 01 01:01:03
  TRACK 65 AUDIO
    TITLE "10:cjc107_2386"
    INDEX 01 01:06:04
  TRACK 66 AUDIO
    TITLE "10:cjc107_2387"
    INDEX 01 01:12:66
  TRACK 67 AUDIO
    TITLE "10:cjc107_2388"
    INDEX 01 01:18:00
  TRACK 68 AUDIO
    TITLE "10:cjc107_2389"
    INDEX 01 01:23:34
  TRACK 69 AUDIO
    TITLE "10:cjc107_2390"
    INDEX 01 01:30:46
  TRACK 70 AUDIO
    TITLE "0:"
    INDEX 01 01:34:38
